<svg id="Layer_1" data-name="Layer 1" xmlns="http://www.w3.org/2000/svg" viewBox="0 0 1073.56 391.35"><defs><style>.cls-1{fill:#212e39;}</style></defs><path class="cls-1" d="M127.4,127.73h83.08L284,228.53,285,228V127.73H334.8v135H255.27L180.8,159.63h-.75V262.69H127.4Zm292.34,0h70.74l82.87,135h-65.5l-14-25.76H409.29l-14,25.76H336.66Zm60.11,82.88-27.08-56h-.92l-27.82,56Zm75,10.07H613.5c0,5,1.86,9,7.1,12.9,4.27,3.35,12.13,5.6,23.51,6.15,10.65,0,18.49-1.14,24.46-3.92,6.17-2.23,9.69-5.61,9.69-9.52A8.93,8.93,0,0,0,674,219a26.34,26.34,0,0,0-10.45-5,89.86,89.86,0,0,0-13.26-2.81c-5.22-1.11-9.71-1.66-14-2.23-16.62-2.79-30.63-5-41.08-7.84a79.57,79.57,0,0,1-26.13-11.21c-7.11-5.59-10.63-12.33-10.63-21.27,0-10.09,3.52-17.91,11.37-24.07s18.48-11.21,32.29-14a227.68,227.68,0,0,1,46.49-4.47c28,0,49.84,3.91,62.9,10.63,14,6.73,20.92,16.25,20.92,28v3.94H674c0-5-1.86-9-7.1-11.76-5.22-3.37-12.13-4.49-20.9-4.49-7.84,0-14,1.12-18.49,3.92-5.22,2.24-7.83,5.6-7.83,9,0,6.71,11.38,11.76,35.09,15.12,15.68,2.22,27.06,3.92,34.92,5.06a174,174,0,0,1,23.5,6.15,48.75,48.75,0,0,1,19.24,11.77c4.48,4.45,7.09,11.18,8,18.46,0,10.07-4.3,17.92-12.34,24.65-8.77,6.71-20,11.21-34.16,14.55a236.62,236.62,0,0,1-46.28,4.29c-20.92,0-38.45-1.49-51.52-4.29-13.26-3.34-23.71-8.4-30.62-15.12a33.31,33.31,0,0,1-10.64-25.21m191.9-92.95h58.43v59.35h.94l66.45-59.35H940l-71.68,59.35,77.84,75.61H874.29L806.16,191h-.94v71.7H746.79Z"/></svg>